Year: 2010
Genre: Music / Concerts
Language: Music / English
Length: 187 min + 142
Bit rate: 6693 / 7113 Kbps
Format: mkv
Size: 14 GB
Release:
 
http://www.blu-ray.com/movies/Metallica-Slayer-Megadeth-Anthrax-The-Big-4-Live-from-Sofia-Bulgaria-Blu-ray/16600/

Description:

The "Big Four" of Thrash Metal combines a Blu-ray Disc Metallica, Slayer, Megadeth and Anthrax to wait for the great rivals of the 80s. Meanwhile, they work in Europe on tour. The "Big Four" were on 22 June 2010 on a stage in Sofia (Bulgaria). Now the impressive show on high-definition Blu-ray Disc is available.

The.Big.Four.Live.From.Sofia.Bulgaria.2010.720p.MBluRay.Disc1.x264-SEMTEX
The.Big.Four.Live.From.Sofia.Bulgaria.2010.720p.MBluRay.Disc2.x264-SEMTEX






Disc 1:
"Anthrax"
01 Caught In A Mosh
02 Got The Time
Madhouse 03
04 Be All, End All
05 Antisocial
06 Indians / Heaven And Hell
07 Medusa
Only 08
2009 Metal Thrashing Mad
10 I Am The Law

"Megadeth"
11 Holy Wars ... The Punishment Due
12 Hangar 18
13 Wake Up Dead
14 Head Crusher
15 In My Darkest Hour
16 Skin O 'My Teeth
17 A Tout Le Monde
18 Trust
19 Sweating Bullets
20 Symphony Of Destruction
21 Peace Sells / Holy Wars Reprise

"Slayer"
22 World Blood Painted
23 Jihad
24 was Emsemble
25 Hate Worldwide
26 Seasons In The Abyss
27 Angel Of The Death
28 Beauty Through Order
29 Disciple
30 Mandatory Suicide
31 Chemical Warfare
32 South Of Heaven
33 Raining Blood


General
Full Name: \ The.Big.Four.Live.From.Sofia.Bulgaria.2010.Disc1.720p.MBluRay.x264-SEMTEX \ sem-tbflfsb720p.mkv
Format: Matroska
File size: 8.75 GiB
Duration: 3hrs 7min
Total bit rate: 6693 Kbps
Encoded date: UTC 2010-11-14 01:31:00
Writing application: mkvmerge v4.4.0 ('The Return') built on Oct 31 2010 21:52:48
Writing library: libebml v1.0.0 + v1.0.0 libmatroska

Video
ID: 1
Format: AVC
Format / Info: Advanced Video Codec
Format profile: High@L4.1
Format settings, CABAC: Yes
Format settings ReFrames: 5 frames
Codec ID: V_MPEG4/ISO/AVC
Duration: 3hrs 7min
Bit rate: 5181 Kbps
Width: 1280 pixels
Height: 720 pixels
Aspect ratio: 16:9
Frame rate: 29.970 FPS
Color space: YUV
ChromaSubsampling: 4:2:0
Bitdepth / String: 8 bits
Scan type: Progressive
Bits / (Pixel * Frame): 0188
Stream size: 6.60 GiB (75%)
Writing library: x264 core r1745 +311 107 2317302
Encoding settings: CABAC = 1 / ref = 5 / deblock = 1:0:0 / analysis = 0x3: 0x133 / me = umh / subme = 7 / psy fade_compensate = 1 / = 0.00 / psy_rd = 1.00:0.00 / mixed_ref = 1 / me_range = 16 / chroma_me = 1 / trellis = 1 / 8x8dct = 1 / cqm = 0 / deadzone = 21.11 / fast_pskip = 0 / =- chroma_qp_offset 2 / threads = 6 / sliced_threads = 0 / nr = 0 / decimate = 1 / interlaced = 0 / constrained_intra = 0 / FGO = 0 / bframes = 3 / b_pyramid = 2 / b_adapt = 1 / b_bias = 0 / direct = 1 / weightb = 1 / open_gop = 0 / weightp = 2 / keyint = 250 / keyint_min = 25 / scenecut = 40 / intra_refresh = 0 / rc_lookahead = 40 / rc = 2pass / mbtree = 1 / bitrate = 5181 / ratetol = 1.0 / qcomp 0.60 / qpmin = 10 / qpmax = 51 / qpstep = 4 / cplxblur = 20.0 / qblur = 0.5 / ip_ratio = 1.40 / aq = 1:1.00

Audio
ID: 2
Format: DTS
Format / Info: Digital Theater Systems
Codec ID: A_DTS
Duration: 3hrs 7min
Bit rate mode: Constant
Bitrate: 1 510 Kbps
Channels: 6 channels
Channel positions: Front: LCR, Side: LR, LFE
Sampling rate: 48.0 KHz
Bitdepth / String: 24 bits
Stream size: 1.97 GiB (23%)







Disc 2:
"Metallica"
01 Creeping Death
02 For Whom The Bell Tolls
03 Fuel
04 Harvester Of Sorrow
05 Fade To Black
06 That Was Just Your Life
07 Cyanide
08 Sad But True
09 Welcome Home (Sanitarium)
10 All Nightmare Long
11 One
12 Master Of Puppets
13 Blackened
14 Nothing Else Matters
15 Enter Sandman
16 Am I Evil?
17 Hit The Lights
18 Seek & Destroy


General
Full Name: \ The.Big.Four.Live.From.Sofia.Bulgaria.2010.Disc2.720p.MBluRay.x264-SEMTEX \ sem-tbflfsb2720p.mkv
Format: Matroska
File size: 6.56 GiB
Duration: 2hrs 12min
Total bit rate: 7113 Kbps
Encoded date: UTC 2010-11-14 13:58:57
Writing application: mkvmerge v4.4.0 ('The Return') built on Oct 31 2010 21:52:48
Writing library: libebml v1.0.0 + v1.0.0 libmatroska

Video
ID: 1
Format: AVC
Format / Info: Advanced Video Codec
Format profile: High@L4.1
Format settings, CABAC: Yes
Format settings ReFrames: 5 frames
Codec ID: V_MPEG4/ISO/AVC
Duration: 2hrs 12min
Bit rate: 5602 Kbps
Width: 1280 pixels
Height: 720 pixels
Aspect ratio: 16:9
Frame rate: 29.970 FPS
Color space: YUV
ChromaSubsampling: 4:2:0
Bitdepth / String: 8 bits
Scan type: Progressive
Bits / (Pixel * Frame): 0203
Stream size: 5.04 GiB (77%)
Writing library: x264 core 107 r1766 f9f0035
Encoding settings: CABAC = 1 / ref = 5 / deblock = 1:0:0 / analysis = 0x3: 0x133 / me = umh / subme = 7 / psy = 1 / psy_rd = 1.00:0.00 / mixed_ref = 1 / me_range = 16 / chroma_me = 1 / trellis = 1 / 8x8dct = 1 / cqm = 0 / deadzone = 21.11 / fast_pskip = 0 / =- chroma_qp_offset 2 / threads = 6 / sliced_threads = 0 / nr = 0 / decimate = 1 / interlaced = 0 / constrained_intra = 0 / bframes = 3 / b_pyramid = 2 / b_adapt = 1 / b_bias = 0 / direct = 1 / weightb = 1 / open_gop = 0 / weightp = 2 / keyint = 250 / keyint_min = 25 / scenecut = 40 / intra_refresh = 0 / rc_lookahead = 40 / rc = 2pass / mbtree = 1 / bitrate = 5602 / ratetol = 1.0 / qcomp 0.60 / qpmin = 10 / qpmax = 51 / qpstep = 4 / cplxblur = 20.0 / qblur = 0.5 / = 1.40 ip_ratio / aq = 1:1.00

Audio
ID: 2
Format: DTS
Format / Info: Digital Theater Systems
Codec ID: A_DTS
Duration: 2hrs 12min
Bit rate mode: Constant
Bitrate: 1 510 Kbps
Channels: 6 channels
Channel positions: Front: LCR, Side: LR, LFE
Sampling rate: 48.0 KHz
Bitdepth / String: 24 bits
Stream size: 1.39 GiB (21%)